<svg xmlns="http://www.w3.org/2000/svg" viewBox="0 0 128 128" fill="currentColor">
  <path d="M126.709 86.936a3.582 3.582 0 0 0-.003-2.839c-.41-.959-1.193-1.697-2.203-2.077-2.001-.749-4.285.185-5.094 2.082-1.941 4.557-6.188 8.312-12.652 11.198 3.725-4.294 5.241-8.693 4.516-13.122-.337-2.052-2.36-3.461-4.482-3.136a3.99 3.99 0 0 0-2.64 1.562 3.61 3.61 0 0 0-.664 2.736c1.217 7.417-12.438 15.054-17.316 17.145-.05.021-.098.045-.151.075-1.01.12-2.006.219-2.979.304a7.065 7.065 0 0 0-.502-.688 6.868 6.868 0 0 0-4.698-2.443l-8.132-.708a6.923 6.923 0 0 0-4.007.877 6.903 6.903 0 0 0-5.018-2.87l-8.132-.708c-.797-.07-1.6.005-2.368.208a6.864 6.864 0 0 0-1.084-2.027l-5.011-6.444a6.933 6.933 0 0 0-3.129-2.242 7.28 7.28 0 0 0 .04-.741v-8.163a6.906 6.906 0 0 0-2.505-5.323c-.261-4.478.472-5.056 2.748-5.625 1.023-.266 2.102 3.66 2.747 6 .923 3.349 1.721 6.24 3.45 7.011.443.197 1.151.342 2.008-.087 2.062-1.031 3.239-2.366 3.499-3.968.318-1.965-.741-4.135-3.239-6.633-1.876-1.876-1.621-4.929-.219-6.496 1.051-1.175 2.432-1.181 3.887-.017 4.977 3.98 16.664 9.516 25.283 1.972 4.247-3.716 7.526-3.835 9.696-3.913 1.708-.062 3.645-.132 3.645-2.839 0-2.023-1.39-3.768-3.625-4.552-2.648-.929-6.507-.383-9.156 2.928-2.261 2.829-10.135 3.45-14.526 1.146-2.64-1.385-3.561-3.482-2.734-6.235.324-1.081.896-2.432 1.777-2.735 1.186-.403 3.088.952 4.771 2.149 1.912 1.361 3.715 2.647 5.42 2.291.792-.166 1.442-.663 1.932-1.478 2.101-3.502-1.194-5.612-3.374-7.009-2.341-1.499-3.043-2.151-2.589-3.059.513-1.024 4.565-.337 7.525.163 4.55.771 9.25 1.566 11.839-.358.982-.73 1.565-1.783 1.733-3.128.171-1.363-.136-2.455-.91-3.247-1.833-1.875-5.815-1.468-10.03-1.036-4.243.434-9.05.925-10.157-1.289-.464-.927-.3-1.344-.246-1.481.358-.913 2.146-1.583 3.875-2.231 2.99-1.121 7.085-2.656 6.467-6.982-.16-1.116-.659-1.925-1.484-2.405-2.109-1.227-5.64.168-9.726 1.782-4.13 1.63-8.808 3.477-9.886 1.317-1.184-2.367-.781-6.039-.426-9.279.385-3.51.717-6.541-.761-8.19C57.062 1.362 56.151.997 55 .997c-3.561 0-4.132 3.887-4.684 7.646-.74 5.046-1.511 8.354-5.316 8.354-4.234 0-5.339-3.302-6.509-6.799C37.472 7.149 36.417 3.997 33 3.997c-4 0-4 4.335-4 7.5 0 4.059-.302 5.5-2 5.5-2.358 0-4.583-2.937-6.734-5.776-2.651-3.498-5.39-7.116-8.78-5.081-.95.57-1.534 1.285-1.735 2.125-.372 1.552.589 3.087 1.702 4.866 1.658 2.649 3.537 5.652 1.653 9.419-1.871 3.743-4.672 4.009-7.142 4.245-2.212.21-4.964.472-4.964 4.202 0 3.965 3.521 4.792 6.351 5.456 2.69.631 4.347 1.131 4.669 2.741.429 2.144-2.766 4.76-5.585 7.067C3.519 48.648 1 50.71 1 52.997c0 2.241.586 3.662 1.791 4.344 1.491.843 3.627.372 6.724-1.487 2.155-1.293 4.16-.541 5.19.778.858 1.1 1.266 2.979-.412 4.657-3.202 3.202-5.659 11.376-3.881 15.67.812 1.958 2.44 3.037 4.588 3.037 4.046 0 5.168-4.741 6.157-8.924.721-3.044 1.466-6.193 3.092-7.099.636-.354 1.432-.363 2.435-.028.446.149 1.131 1.496.933 5.561A6.909 6.909 0 0 0 25 74.916v8.163c0 3.241 2.243 5.961 5.256 6.708a6.9 6.9 0 0 0 1.201 6.094l5.011 6.444a6.91 6.91 0 0 0 5.47 2.669c1.014 0 2.027-.24 2.972-.692a6.864 6.864 0 0 0 1.553 3.516 6.868 6.868 0 0 0 4.698 2.443l8.132.708a6.85 6.85 0 0 0 4-.878 6.906 6.906 0 0 0 5.025 2.87l8.132.708c.203.018.405.026.605.026 3.02 0 5.659-1.978 6.57-4.786 3.169.679 6.559 2.129 7.23 4.333 2.356 7.74 11.147 12.973 11.52 13.192.62.364 1.333.557 2.062.557 1.358 0 2.603-.651 3.329-1.743a3.595 3.595 0 0 0 .521-2.826c-.231-1.005-.865-1.855-1.784-2.394-1.697-.996-6.825-4.767-8.079-8.886-.512-1.68-1.431-3.192-2.742-4.515a86.949 86.949 0 0 0 3.406-.786c2.993.755 10.218 3.496 11.309 8.099 2.352 9.937 8.56 12.526 9.26 12.789.468.175.958.264 1.457.264 1.627 0 3.067-.916 3.67-2.332a3.602 3.602 0 0 0 .005-2.854 3.733 3.733 0 0 0-2.127-2.028c-.032-.014-3.152-1.471-4.579-7.496-.935-3.948-3.763-7.405-8.223-10.084 8.465-3.751 14.129-8.88 16.849-15.263zM27.316 62.048c-1.546-.515-2.904-.455-4.041.178-2.396 1.335-3.244 4.919-4.064 8.386-1.056 4.461-1.919 7.385-4.211 7.385-1.36 0-2.23-.573-2.74-1.803-1.459-3.523.775-10.818 3.447-13.49 2.435-2.435 2.043-5.421.574-7.302-1.521-1.948-4.609-3.175-7.796-1.262-3.076 1.847-4.271 1.708-4.709 1.461C3.135 55.237 3 53.984 3 52.997c0-1.339 2.498-3.385 4.702-5.189 3.413-2.794 6.943-5.685 6.278-9.007-.598-2.986-3.56-3.682-6.173-4.295C4.827 33.806 3 33.262 3 30.997c0-1.83.706-1.979 3.153-2.212 2.689-.256 6.374-.606 8.741-5.341 2.386-4.771-.003-8.588-1.747-11.375-.838-1.339-1.629-2.603-1.453-3.338.027-.111.108-.45.82-.877 1.729-1.033 3.479 1.039 6.156 4.574 2.446 3.229 4.977 6.568 8.329 6.568 4 0 4-4.335 4-7.5 0-4.059.302-5.5 2-5.5 1.882 0 2.592 1.837 3.595 4.835 1.217 3.638 2.73 8.165 8.405 8.165 5.818 0 6.638-5.58 7.296-10.063.543-3.693.995-5.936 2.705-5.936.755 0 1.057.239 1.219.419.881.984.566 3.857.261 6.637-.386 3.514-.822 7.498.625 10.392 1.899 3.799 7.484 1.593 12.409-.352 3.147-1.243 6.719-2.653 7.986-1.913.175.102.416.311.509.959.364 2.55-1.717 3.524-5.188 4.826-2.237.839-4.351 1.631-5.034 3.373-.36.918-.253 1.963.318 3.107 1.725 3.449 7.023 2.907 12.149 2.383 3.394-.346 7.24-.739 8.396.444.122.125.493.504.356 1.601-.101.805-.4 1.368-.942 1.771-1.905 1.415-6.371.659-10.312-.008-4.547-.769-8.473-1.434-9.648.914-1.335 2.669 1.234 4.315 3.299 5.637 2.881 1.845 3.681 2.725 2.738 4.295-.258.429-.48.519-.626.55-.853.168-2.442-.96-3.851-1.963-2.176-1.548-4.425-3.148-6.579-2.412-1.372.47-2.368 1.796-3.045 4.052-1.107 3.693.214 6.74 3.722 8.58 5.268 2.763 14.172 1.889 17.018-1.668 2.037-2.546 4.949-2.984 6.932-2.29C88.818 52.72 90 53.624 90 54.997c0 .778 0 .778-1.718.84-2.304.083-6.159.223-10.94 4.407-7.626 6.672-18.192 1.59-22.717-2.028-2.754-2.202-5.229-1.317-6.627.244-2.041 2.281-2.41 6.539.295 9.244 1.955 1.956 2.882 3.649 2.679 4.899-.151.932-.965 1.772-2.419 2.5-.196.098-.264.065-.299.049-.867-.387-1.717-3.467-2.337-5.715-1.103-4-2.23-8.134-5.159-7.41-3.513.879-4.358 2.814-4.309 6.396a6.866 6.866 0 0 0-2.368-.426h-2.162a6.87 6.87 0 0 0-2.271.391c.04-3.764-.709-5.799-2.332-6.34zM27 83.078v-8.163a4.924 4.924 0 0 1 4.919-4.918h2.162A4.925 4.925 0 0 1 39 74.915v8.163a4.925 4.925 0 0 1-4.919 4.919h-2.162A4.924 4.924 0 0 1 27 83.078zm11.046 18.019-5.01-6.444a4.902 4.902 0 0 1-.744-4.656h1.789a6.928 6.928 0 0 0 6.381-4.247 4.859 4.859 0 0 1 2.047 1.537l5.011 6.444a4.925 4.925 0 0 1-.865 6.902l-1.707 1.328a4.924 4.924 0 0 1-6.902-.864zm21.421 7.881-8.132-.708a4.89 4.89 0 0 1-3.341-1.737 4.876 4.876 0 0 1-1.132-3.525l1.021-.794a6.908 6.908 0 0 0 2.659-5.708 4.839 4.839 0 0 1 1.834-.19l8.132.708a4.927 4.927 0 0 1 4.474 5.327l-.188 2.155c-.236 2.701-2.633 4.71-5.327 4.472zm22.484-1.772c-.236 2.702-2.626 4.701-5.327 4.474l-8.132-.708a4.91 4.91 0 0 1-3.615-2.107 6.884 6.884 0 0 0 1.909-4.185l.188-2.155a6.872 6.872 0 0 0-.349-2.831 4.91 4.91 0 0 1 2.908-.676l8.132.708a4.89 4.89 0 0 1 3.341 1.737 4.886 4.886 0 0 1 1.133 3.59l-.188 2.153zm25.248-6.053a1.001 1.001 0 0 0-.08 1.821c3.474 1.758 7.858 4.88 9.018 9.774 1.638 6.917 5.312 8.689 5.772 8.887.483.182.853.523 1.041.962.174.408.172.864-.007 1.284-.374.881-1.584 1.357-2.585.979-.599-.224-5.902-2.448-8.017-11.376-1.631-6.887-12.565-9.532-13.03-9.642a1.008 1.008 0 0 0-.476.005c-1.8.459-3.665.87-5.545 1.22a1 1 0 0 0-.41 1.787c1.836 1.354 3.057 2.994 3.629 4.874 1.744 5.728 8.909 9.986 8.981 10.029.439.257.74.654.848 1.118.101.436.016.886-.238 1.268-.548.821-1.817 1.095-2.713.569-.345-.203-8.487-5.048-10.618-12.049-1.103-3.625-6.101-5.151-8.788-5.719l.15-1.719a6.89 6.89 0 0 0-.225-2.434c.84-.079 1.69-.167 2.551-.271.122-.015.241-.052.35-.11.014-.007.138-.08.15-.088.203-.086 20.227-8.796 18.503-19.306-.07-.431.037-.868.304-1.23.304-.416.77-.687 1.318-.766 1.04-.157 2.059.521 2.216 1.48.802 4.885-1.664 9.838-7.326 14.722a1 1 0 0 0 .974 1.704c9.555-3.24 15.713-7.964 18.303-14.042.396-.926 1.536-1.372 2.551-.993.495.186.874.538 1.068.991.175.409.175.859.001 1.268-2.704 6.348-8.649 11.395-17.67 15.003z"></path>
  <path d="M51.578 49.676C56.772 44.038 60 37.539 60 32.714c0-2.761-1.066-5.055-3.169-6.82-5.377-4.514-16.567-4.487-25.248-2.959C20.952 24.807 16 30.359 16 40.409c0 10.25 8.596 18.588 19.162 18.588 4.9 0 11.037-3.484 16.416-9.321zM18 40.409c0-9.026 4.296-13.808 13.931-15.504 3.157-.556 6.651-.914 10.034-.914 5.44 0 10.59.925 13.581 3.435C57.197 28.812 58 30.542 58 32.714c0 8.792-13.202 24.283-22.838 24.283C25.699 56.997 18 49.556 18 40.409z"></path>
  <path d="M44.714 41.425c0-2.075-.269-12.428-5.571-12.428-4.288 0-11.285 5.666-11.285 10.143 0 4.333 3.524 7.857 7.856 7.857 7.438 0 9-3.03 9-5.572zM29.857 39.14c0-3.275 6.088-8.143 9.285-8.143 2.62 0 3.571 6.236 3.571 10.428 0 2.37-2.355 3.572-7 3.572a5.863 5.863 0 0 1-5.856-5.857z"></path>
</svg>
