<svg xmlns="http://www.w3.org/2000/svg" viewBox="0 0 512 512" fill="currentColor">
  <path d="M253.531,348.239c-76.035-76.787-75.097-73.252-75.097-77.166c0-3.94-5.688,4.393,137.684-139.754c16.32-16.321,16.32-42.878,0-59.198c-1.953-1.952-1.953-5.118,0-7.07l22.089-22.09c1.953-1.955,5.122-1.95,7.07,0l106.767,106.766c1.955,1.953,1.95,5.122,0,7.07L260.602,348.239C258.651,350.192,255.483,350.192,253.531,348.239z M190.506,271.073l66.561,66.56l184.371-184.371l-44.325-44.325l0,0l-55.37-55.369l-15.187,15.188c16.783,20.352,15.66,50.607-3.367,69.635L190.506,271.073z"/>
  <path d="M419.202,270.926l-44.179-44.18c-1.953-1.952-1.953-5.118,0-7.07l18.407-18.407c1.951-1.953,5.119-1.953,7.07,0l44.18,44.179c1.955,1.953,1.95,5.122,0,7.07l-18.408,18.408C424.323,272.878,421.154,272.88,419.202,270.926z M385.63,223.211l37.107,37.108l11.337-11.337l-37.108-37.107L385.63,223.211z"/>
  <path d="M282.983,377.692l-29.452-29.453c-1.953-1.952-1.953-5.118,0-7.07c128.111-127.34,121.086-122.957,125.027-122.957c3.714,0,2.418,1.066,32.987,30.918c1.953,1.952,1.953,5.118,0,7.07L290.054,377.692C288.101,379.647,284.931,379.642,282.983,377.692z M264.138,344.704l22.381,22.382L400.94,252.664l-22.381-22.382L264.138,344.704z"/>
  <path d="M235.131,352.773c-73.153-45.217-74.109-42.996-74.658-47.559c-0.184-1.523,0.343-3.048,1.429-4.133c26.712-26.002,25.641-27.236,29.307-27.236c3.906,0,1.577,0.248,61.62,59.551c1.953,1.952,1.953,5.118,0,7.07l-11.567,11.567C239.641,353.655,237.111,353.973,235.131,352.773z M173.477,303.648l63.488,38.54l5.257-5.257l-51.014-51.015L173.477,303.648z"/>
  <path d="M183.135,379.458L183.135,379.458c-3.714,0-2.641-1.284-32.985-30.925c-1.952-1.953-1.952-5.118,0.001-7.07l29.569-29.57c1.951-1.953,5.119-1.953,7.07,0c1.953,1.952,1.953,5.118,0,7.07l-26.034,26.036l22.379,22.387l33.234-33.243c1.953-1.953,5.118-1.952,7.071-0.001c1.953,1.952,1.953,5.118,0.001,7.071C185.151,378.781,186.919,379.458,183.135,379.458z"/>
  <path d="M22.38,506.603c-5.848-5.847-5.848-15.361-0.001-21.21l135.852-135.85c1.951-1.953,5.119-1.953,7.07,0c1.953,1.952,1.953,5.118,0,7.07L29.45,492.463c-1.948,1.949-1.948,5.12,0,7.069c1.958,1.956,5.117,1.958,7.065,0.004L172.37,363.683c1.951-1.953,5.119-1.953,7.07,0c1.953,1.952,1.953,5.118,0,7.07l-135.85,135.85C37.758,512.452,28.258,512.483,22.38,506.603z"/>
  <path d="M470.744,79.484l-55.224-55.225c-1.949-1.947-1.956-5.113,0-7.071l14.727-14.725c1.951-1.953,5.119-1.953,7.07,0l55.224,55.224c1.953,1.952,1.953,5.118,0,7.07l-14.727,14.727C475.865,81.436,472.696,81.438,470.744,79.484z M426.127,20.724l48.152,48.153l7.655-7.655L433.782,13.07L426.127,20.724z"/>
  <path d="M408.157,119.981l-33.134-33.134c-1.953-1.952-1.953-5.118,0-7.07c53.631-52.89,51.154-53.008,55.077-53.008c3.706,0,1.938,0.599,36.669,34.6c1.953,1.952,1.953,5.118,0,7.07l-51.542,51.542C413.277,121.934,410.109,121.934,408.157,119.981z M385.63,83.312l26.062,26.062l44.471-44.471L430.101,38.84L385.63,83.312z"/>
  <path d="M297.564,309.206c-1.279,0-2.56-0.488-3.535-1.465c-21.996-22.691-23.555-21.981-23.555-25.625c0-3.939-6.69,5.397,152.41-154.479c1.951-1.953,5.119-1.953,7.07,0c1.953,1.952,1.953,5.118,0,7.07L282.545,282.117l18.554,18.555c1.953,1.952,1.953,5.118,0,7.07C300.123,308.718,298.843,309.206,297.564,309.206z"/>
  <path d="M238.805,289.333c-21.997-22.691-23.555-21.98-23.555-25.624c0-1.326,0.526-2.598,1.465-3.535c104.491-103.726,99.004-100.868,102.938-100.868c0.105,0.021,1.973-0.099,3.535,1.465l22.089,22.09c1.953,1.952,1.953,5.118,0,7.07l-99.402,99.402C243.924,291.286,240.756,291.287,238.805,289.333z M227.321,263.709l15.019,15.018l92.331-92.331l-15.018-15.019L227.321,263.709z"/>
  <path d="M400.794,156.796l-40.497-40.497c-1.953-1.952-1.953-5.118,0-7.07c1.951-1.953,5.119-1.953,7.07,0l40.497,40.497c1.953,1.952,1.953,5.118,0,7.07C405.913,158.749,402.745,158.749,400.794,156.796z"/>
</svg>
