<svg xmlns="http://www.w3.org/2000/svg" viewBox="0 0 68 68" fill="currentColor">
  <path d="M13.4079323,42.151516c-0.1738281,0-0.3427734-0.0908203-0.4345703-0.2529297c-0.5449219-0.9599609-0.6669922-2.0727539-0.34375-3.1333008c0.4384766-1.4150391,2.7851562-3.4194336,4.6767578-4.8520508c0.2958984-0.2333984,0.6992188-0.3095703,1.0703125-0.1977539c0.3769531,0.1142578,0.6748047,0.40625,0.796875,0.7817383c0.7529297,2.2436523,1.5595703,5.2197266,1.1220703,6.6323242c-0.0722656,0.2514648-0.1826172,0.5063477-0.3339844,0.7700195c-0.1376953,0.2407227-0.4453125,0.3212891-0.6816406,0.1860352c-0.2402344-0.137207-0.3232422-0.4428711-0.1855469-0.6821289c0.1103516-0.1943359,0.1904297-0.3779297,0.2431641-0.5605469c0.2744141-0.8867188-0.1425781-3.1381836-1.1132812-6.0322266c-0.0322266-0.097168-0.1064453-0.1289062-0.1376953-0.1381836c-0.0400391-0.0131836-0.1054688-0.0180664-0.1679688,0.03125c-2.4443359,1.8515625-4.0605469,3.4775391-4.3330078,4.3554688c-0.2421875,0.7929688-0.1513672,1.6269531,0.2568359,2.3452148c0.1367188,0.2402344,0.0527344,0.5454102-0.1875,0.6816406C13.5768776,42.1305199,13.4919167,42.151516,13.4079323,42.151516z"/>
  <path d="M28.5788307,51.9039574H11.5505104c-0.2763672,0-0.5-0.2236328-0.5-0.5s0.2236328-0.5,0.5-0.5h17.0283203c0.2763672,0,0.5,0.2236328,0.5,0.5S28.8551979,51.9039574,28.5788307,51.9039574z"/>
  <path d="M25.3678932,62.401516h-10.609375c-2.0458984,0-3.7099609-1.6640625-3.7099609-3.7099609V46.5616722c0-0.2763672,0.2236328-0.5,0.5-0.5s0.5,0.2236328,0.5,0.5V58.691555c0,1.4941406,1.2158203,2.7099609,2.7099609,2.7099609h10.609375c1.4941406,0,2.7099609-1.2158203,2.7099609-2.7099609V46.5616722c0-0.2763672,0.2236328-0.5,0.5-0.5s0.5,0.2236328,0.5,0.5V58.691555C29.0778542,60.7374535,27.4137917,62.401516,25.3678932,62.401516z"/>
  <path d="M29.6169167,47.0587425H10.5182838c-1.6308594,0-2.9580078-1.3271484-2.9580078-2.9580078c0-0.7836914,0.3076172-1.5229492,0.8662109-2.0805664c0.5498047-0.550293,1.3125-0.8662109,2.0917969-0.8662109h19.0986328c1.6308594,0,2.9580078,1.3217773,2.9580078,2.9467773c0,0.7783203-0.3154297,1.5405273-0.8662109,2.0917969C31.1344948,46.7525902,30.3932838,47.0587425,29.6169167,47.0587425z M10.5182838,42.1539574c-0.515625,0-1.0205078,0.2089844-1.3847656,0.5732422C8.763401,43.0963402,8.560276,43.5841331,8.560276,44.1007347c0,1.0795898,0.8779297,1.9580078,1.9580078,1.9580078h19.0986328c0.5136719,0,1.0068359-0.2050781,1.3896484-0.5776367c0.359375-0.3603516,0.5683594-0.8652344,0.5683594-1.3803711c0-1.0732422-0.8779297-1.9467773-1.9580078-1.9467773H10.5182838z"/>
  <path d="M54.2712135,24.6739788c-0.4287109,0-0.8574219-0.0825195-1.2666016-0.2475586c-0.8427734-0.3393555-1.5058594-0.9892578-1.8671875-1.8291016l-4.9306641-11.5268564c-0.3613281-0.8237305-0.3759766-1.7446289-0.0390625-2.5893555c0.3388672-0.8530273,0.9912109-1.519043,1.8359375-1.8759766c0.7666016-0.3251953,1.6201172-0.3671875,2.4003906-0.1157227c0.9394531,0.3022461,1.6982422,0.9956055,2.0820312,1.9023438l4.9326172,11.50879c0.734375,1.7333984-0.0742188,3.7480469-1.8017578,4.4931641C55.1842995,24.5807171,54.7272682,24.6739788,54.2712135,24.6739788z M49.3649635,7.3272982c-0.3291016,0-0.6601562,0.0668945-0.9726562,0.1987305c-0.5957031,0.2519531-1.0556641,0.7226562-1.2958984,1.324707c-0.2363281,0.5942383-0.2265625,1.2412109,0.0283203,1.8222656l4.9316406,11.5297861c0.2558594,0.5952148,0.7255859,1.0561523,1.3212891,1.2963867c0.5966797,0.2397461,1.25,0.2338867,1.8427734-0.0234375c1.2460938-0.5371094,1.8066406-1.9355469,1.2783203-3.1831055L51.5651588,8.7833529c-0.2705078-0.640625-0.8046875-1.1289062-1.4677734-1.3417969C49.8600807,7.3653841,49.6130104,7.3272982,49.3649635,7.3272982z"/>
  <path d="M56.8669167,20.3966351c-0.1933594,0-0.3779297-0.1137695-0.4599609-0.3032227l-4.75-11.0917978c-0.0517578-0.1220703-0.0537109-0.2597656-0.0039062-0.3828125c0.0488281-0.1235352,0.1455078-0.2216797,0.2675781-0.2739258l5.1953125-2.2143555C58.7194557,5.4444857,60.4958,5.4205599,62.1169167,6.066556c1.6210938,0.6469727,2.8915977,1.8862305,3.5790977,3.4902344c0.6884766,1.6098633,0.7119141,3.3876953,0.0644531,5.0058594c-0.6484375,1.6196299-1.8925743,2.890626-3.5019493,3.5791025c0,0.0004883,0,0.0004883,0,0.0004883l-5.1953125,2.2143555C56.9987526,20.3839397,56.9323463,20.3966351,56.8669167,20.3966351z M52.7741432,9.0685091l4.3554688,10.1723642l4.7363281-2.0185547c1.3632812-0.5834961,2.4169884-1.6601572,2.9667931-3.031251c0.5478516-1.3701172,0.5283203-2.8759766-0.0566406-4.2407227C64.1950378,8.5924349,63.1188698,7.5431185,61.7458,6.9957552c-1.3710709-0.546875-2.8769302-0.527832-4.2363052,0.0541992L52.7741432,9.0685091z M62.0622292,17.6822796h0.0097656H62.0622292z"/>
  <path d="M19.395237,32.1651878c-1.0830078,0-2.1152344-0.6342754-2.5673828-1.6909161c-0.2958984-0.6938477-0.3027344-1.453125-0.0185547-2.1376953c0.2568359-0.6699219,0.7998047-1.2294922,1.484375-1.5219727l0.9794922-0.4155273c1.5751953-0.6738281,2.8828125-1.8735352,3.6816406-3.3764648c0.9140625-1.7001953,2.3935547-3.0532227,4.1650391-3.8120117l19.5322266-8.3583994c0.2519531-0.1098633,0.546875,0.0087891,0.65625,0.2626953l4.5722656,10.6752939c0.0517578,0.1220703,0.0537109,0.2597656,0.0039062,0.3828125c-0.0488281,0.1230469-0.1455078,0.2216797-0.2675781,0.2734375l-19.53125,8.3583984c-1.7724609,0.7597656-3.7724609,0.8974609-5.6308594,0.3857422c-0.0292969-0.0083008-0.0585938-0.019043-0.0859375-0.0327148c-1.6201172-0.4248047-3.3564453-0.2954102-4.9013672,0.3671875l-0.9804688,0.4155273C20.1305885,32.0929222,19.7604713,32.1646996,19.395237,32.1651878z M46.5856667,11.9679232l-19.0722656,8.161622c-1.5644531,0.6704102-2.8701172,1.8652344-3.6767578,3.3642578c-0.9042969,1.7016602-2.3857422,3.0610352-4.171875,3.8251953l-0.9794922,0.4155273c-0.4355469,0.1865234-0.78125,0.5415039-0.9472656,0.9731445c-0.1855469,0.4462891-0.1796875,0.9296875,0.0097656,1.3730469c0.3886719,0.90625,1.4384766,1.3266602,2.3476562,0.9399414l0.9794922-0.4155273c1.7773438-0.7607422,3.7792969-0.9008789,5.640625-0.3891602c0.0292969,0.0083008,0.0585938,0.019043,0.0859375,0.0327148c1.6171875,0.4233398,3.3505859,0.2963867,4.890625-0.362793l19.0722656-8.1616211L46.5856667,11.9679232z"/>
  <path d="M19.395237,32.1651878c-1.0830078,0-2.1152344-0.6342754-2.5673828-1.6909161c-0.2958984-0.6938477-0.3027344-1.453125-0.0185547-2.1376953c0.2568359-0.6699219,0.7998047-1.2294922,1.484375-1.5219727l0.9794922-0.4155273c1.5751953-0.6738281,2.8828125-1.8735352,3.6816406-3.3769531c0.9140625-1.699707,2.3935547-3.0527344,4.1650391-3.8115234l8.4873047-3.6347666c0.1923828-0.0839844,0.4189453-0.0361328,0.5625,0.1176758l8.4414062,9.0180674c0.1113281,0.1191406,0.1572266,0.2851562,0.1240234,0.4443359c-0.0332031,0.159668-0.1425781,0.2929688-0.2919922,0.3569336l-12.3564453,5.2919922c-1.7744141,0.7597656-3.7734375,0.8974609-5.6318359,0.3857422c-0.0302734-0.0083008-0.0585938-0.019043-0.0859375-0.0327148c-1.6201172-0.4248047-3.3564453-0.2954102-4.9013672,0.3671875l-0.9804688,0.4155273C20.1305885,32.0929222,19.7604713,32.1651878,19.395237,32.1651878z M35.6794167,16.6329632l-8.1650391,3.496582c-1.5654297,0.6704102-2.8710938,1.8652344-3.6777344,3.3642578c-0.9042969,1.7016602-2.3857422,3.0610352-4.171875,3.8251953l-0.9794922,0.4155273c-0.4355469,0.1865234-0.78125,0.5415039-0.9472656,0.9731445c-0.1855469,0.4462891-0.1796875,0.9296875,0.0097656,1.3730469c0.3886719,0.90625,1.4384766,1.3266602,2.3476562,0.9399414l0.9794922-0.4155273c1.7773438-0.7607422,3.7792969-0.9008789,5.640625-0.3891602c0.0292969,0.0083008,0.0585938,0.019043,0.0859375,0.0327148c1.6201172,0.4233398,3.3505859,0.2963867,4.890625-0.362793l11.7011719-5.0112305L35.6794167,16.6329632z"/>
  <path d="M19.3005104,22.5104046h-15.5c-1.1191406,0-2.0302734-0.90625-2.0302734-2.0200195V9.0406771c0-1.1196289,0.9111328-2.0302734,2.0302734-2.0302734h15.5c1.1191406,0,2.0302734,0.9106445,2.0302734,2.0302734v11.449708C21.3307838,21.6041546,20.419651,22.5104046,19.3005104,22.5104046z M3.8005102,8.0104036c-0.5683594,0-1.0302734,0.4624023-1.0302734,1.0302734v11.449708c0,0.5625,0.4619141,1.0200195,1.0302734,1.0200195h15.5c0.5683594,0,1.0302734-0.4575195,1.0302734-1.0200195V9.0406771c0-0.5678711-0.4619141-1.0302734-1.0302734-1.0302734H3.8005102z"/>
  <path d="M16.7985573,11.7027864h-3.8427734c-0.2763672,0-0.5-0.2236328-0.5-0.5s0.2236328-0.5,0.5-0.5h3.8427734c0.2763672,0,0.5,0.2236328,0.5,0.5S17.0749245,11.7027864,16.7985573,11.7027864z"/>
  <path d="M9.9557838,11.7027864H6.3024635c-0.2763672,0-0.5-0.2236328-0.5-0.5s0.2236328-0.5,0.5-0.5h3.6533203c0.2763672,0,0.5,0.2236328,0.5,0.5S10.232151,11.7027864,9.9557838,11.7027864z"/>
  <path d="M16.7985573,15.2604036H6.3024635c-0.2763672,0-0.5-0.2236328-0.5-0.5s0.2236328-0.5,0.5-0.5h10.4960938c0.2763672,0,0.5,0.2236328,0.5,0.5S17.0749245,15.2604036,16.7985573,15.2604036z"/>
  <path d="M11.5505104,18.8180218H6.3024635c-0.2763672,0-0.5-0.2236328-0.5-0.5s0.2236328-0.5,0.5-0.5h5.2480469c0.2763672,0,0.5,0.2236328,0.5,0.5S11.8268776,18.8180218,11.5505104,18.8180218z"/>
  <path d="M54.8366432,62.0650902H35.5925026c-1.4375,0-2.6962891-0.7597656-3.3671875-2.0327148c-0.6699219-1.2729492-0.5849609-2.7412109,0.2285156-3.9277344l8.3232422-12.1245117v-8.8496094c0-0.2763672,0.2236328-0.5,0.5-0.5h7.8808594c0.2763672,0,0.5,0.2236328,0.5,0.5v8.8588867l8.3173828,12.1152344c0.8154297,1.1816406,0.9033203,2.6484375,0.234375,3.921875C57.5397682,61.3028831,56.279026,62.0650902,54.8366432,62.0650902z M41.7770729,35.6305199v8.5043945c0,0.1010742-0.0302734,0.199707-0.0878906,0.2827148l-8.4111328,12.2529297c-0.5996094,0.8745117-0.6621094,1.9570312-0.1679688,2.8959961c0.4951172,0.9384766,1.4228516,1.4985352,2.4824219,1.4985352h19.2441406c1.0634766,0,1.9941406-0.5620117,2.4882812-1.503418c0.4921875-0.9384766,0.4277344-2.019043-0.1728516-2.890625L48.7458,44.4278831c-0.0575943-0.0834961-0.0878677-0.1821289-0.0878677-0.2832031v-8.5141602H41.7770729z"/>
  <path d="M54.8366432,62.0650902H35.5925026c-1.4375,0-2.6962891-0.7597656-3.3671875-2.0327148c-0.6699219-1.2729492-0.5849609-2.7412109,0.2285156-3.9277344l4.2275391-6.1577148c0.0751953-0.1098633,0.1904297-0.1850586,0.3212891-0.2089844c0.1308594-0.0244141,0.265625,0.0043945,0.375,0.0800781c3.125,2.1577148,6.5371094,3.0092773,13.8808594,0.5834961c0.6308594-0.2070312,1.2714844-0.4233398,1.9160156-0.6445312c0.2080078-0.0742188,0.4472656,0.003418,0.5742188,0.1899414l4.2265625,6.1577148c0.8154297,1.1816406,0.9033203,2.6484375,0.234375,3.921875C57.5397682,61.3028831,56.279026,62.0650902,54.8366432,62.0650902z M37.2262917,50.9195824l-3.9482422,5.7509766c-0.5996094,0.8745117-0.6621094,1.9570312-0.1679688,2.8959961c0.4951172,0.9384766,1.4228516,1.4985352,2.4824219,1.4985352h19.2441406c1.0634766,0,1.9941406-0.5620117,2.4882812-1.503418c0.4921875-0.9384766,0.4277344-2.019043-0.1728516-2.890625l-4.0126953-5.8452148c-0.5273438,0.1796875-1.0507812,0.3554688-1.5673828,0.5253906C45.0387917,53.5084496,41.082737,53.4059105,37.2262917,50.9195824z"/>
  <path d="M49.9391823,35.6295433h-9.4453125c-0.6513672,0-1.1816406-0.5302734-1.1816406-1.1821289V32.054348c0-0.6518536,0.5302734-1.182127,1.1816406-1.182127h9.4453125c0.6513672,0,1.1816177,0.5302734,1.1816177,1.182127v2.3930664C51.1208,35.0992699,50.5905495,35.6295433,49.9391823,35.6295433z M40.4938698,31.872221c-0.1005859,0-0.1816406,0.081543-0.1816406,0.182127v2.3930664c0,0.1005859,0.0810547,0.1821289,0.1816406,0.1821289h9.4453125c0.1005859,0,0.1816177-0.081543,0.1816177-0.1821289V32.054348c0-0.100584-0.0810318-0.182127-0.1816177-0.182127H40.4938698z"/>
</svg>
