<svg xmlns="http://www.w3.org/2000/svg" viewBox="14.39 10.66 71.23 78.68" fill="currentColor">
  <path d="M17.302,67.063l12.403,11.275v8.09l6.765-3.382v-4.708l12.403-11.275v-5.009h-31.57V67.063z M19.558,64.309h27.06v1.756l-1.789,1.626H21.346l-1.789-1.626V64.309z M34.215,81.652l-2.255,1.127V77.34l-8.133-7.394h18.521l-8.133,7.394V81.652z M51.683,45.893c0.368-0.549,0.572-1.201,0.572-1.879v-3.382H50v-3.382v-2.255v-2.255v-2.255v-2.255v-2.255v-2.255v-2.255v-3.986l-3.382-2.255v-1.652h-2.255v1.652l-3.382,2.255v23.153h-2.255v3.382c0,0.679,0.204,1.33,0.572,1.879c-1.102,1.386-1.699,3.084-1.699,4.886c0,4.352,3.541,7.893,7.893,7.893s7.892-3.541,7.892-7.893C53.382,48.978,52.786,47.279,51.683,45.893z M45.49,56.417c-3.109,0-5.638-2.529-5.638-5.638c0-1.556,0.625-3.007,1.762-4.085l1.013-0.961l-1.153-0.788c-0.31-0.211-0.494-0.559-0.494-0.931v-1.127H50v1.127c0,0.372-0.185,0.72-0.494,0.931l-1.153,0.788l1.013,0.961c1.136,1.078,1.762,2.528,1.762,4.085C51.127,53.887,48.598,56.417,45.49,56.417z M43.235,18.685l2.255-1.504l2.255,1.504v2.779H45.49v2.255h2.255v2.255H45.49v2.255h2.255v2.255H45.49v2.255h2.255v2.255H45.49v2.255h2.255v3.382h-4.51V18.685z M21.813,57.544h-2.255V15.827h2.255V57.544z M77.06,72.202c-1.303,0-2.5,0.538-3.456,1.432l-4.898-19.992c0.953-0.599,1.59-1.657,1.59-2.863c0-1.156-0.583-2.176-1.469-2.787l2.429-9.914c1.911-0.019,5.804-0.786,7.577-6.368c1.67-5.259-1.391-9.016-3.835-10.719l1.103-2.314l-2.036-0.97l-2,4.204l0.952,0.507c0.223,0.119,5.454,2.981,3.666,8.61c-1.726,5.435-5.636,4.846-6.068,4.765l-1.066-0.224l-2.636,10.757l-2.376-9.699l-0.266-1.041l-1.054,0.204c-0.441,0.084-4.348,0.672-6.075-4.763c-1.789-5.629,3.443-8.491,3.663-8.609l0.96-0.504l-2.005-4.209l-2.035,0.97l1.103,2.314c-2.445,1.703-5.506,5.46-3.835,10.719c1.774,5.583,5.666,6.349,7.577,6.368l2.429,9.914c-0.886,0.611-1.469,1.631-1.469,2.787c0,1.206,0.637,2.264,1.59,2.863l-4.898,19.992c-0.956-0.894-2.153-1.432-3.456-1.432c-3.109,0-5.638,3.034-5.638,6.765c0,3.73,2.529,6.765,5.638,6.765c3.108,0,5.638-3.035,5.638-6.765c0-0.98-0.178-1.91-0.492-2.752l5.002-20.414l5.002,20.414c-0.314,0.841-0.492,1.772-0.492,2.752c0,3.73,2.529,6.765,5.637,6.765c3.108,0,5.638-3.035,5.638-6.765C82.698,75.236,80.168,72.202,77.06,72.202z M56.765,83.477c-1.865,0-3.382-2.023-3.382-4.51c0-2.487,1.518-4.51,3.382-4.51c1.15,0,2.167,0.771,2.778,1.944l-0.002,0.01l0.009,0.002c0.376,0.727,0.597,1.606,0.597,2.554C60.147,81.453,58.63,83.477,56.765,83.477z M65.796,50.884c-0.003-0.035-0.01-0.069-0.01-0.104c0-0.23,0.07-0.444,0.189-0.623c0.202-0.304,0.547-0.504,0.939-0.504c0.392,0,0.737,0.201,0.939,0.505c0.119,0.179,0.189,0.392,0.189,0.623c0,0.036-0.007,0.069-0.01,0.104c-0.054,0.572-0.531,1.024-1.117,1.024C66.326,51.907,65.849,51.456,65.796,50.884z M77.06,83.477c-1.865,0-3.382-2.023-3.382-4.51c0-0.948,0.221-1.827,0.597-2.554l0.009-0.002l-0.002-0.01c0.611-1.173,1.628-1.944,2.778-1.944c1.865,0,3.382,2.023,3.382,4.51C80.442,81.453,78.925,83.477,77.06,83.477z M33.088,45.142v-2.255V21.464h-6.765v21.423v2.255v9.02h6.765V45.142z M28.577,23.719h2.255v19.167h-2.255V23.719z M30.833,51.907h-2.255v-6.765h2.255V51.907z"/>
</svg>
