<svg xmlns="http://www.w3.org/2000/svg" viewBox="0 0 512 512" id="plasmid"><path d="M456.756,251.427a66.53,66.53,0,0,0-20.414-3.269H436.2a50.236,50.236,0,0,1-31.885-11.369l80.709-26.223a50.43,50.43,0,0,1-16.1,25.4,7.983,7.983,0,1,0,10.342,12.163,66.553,66.553,0,0,0-82.5-104.313,50.4,50.4,0,0,1-32,9.359l49.783-68.521a50.438,50.438,0,0,1,1.98,29.846,7.983,7.983,0,0,0,15.532,3.7A66.471,66.471,0,0,0,321.412,54.8,66.567,66.567,0,0,0,256.006.062H256a66.513,66.513,0,0,0-63.1,87.413,50.217,50.217,0,0,1-1.07,33.392l-49.79-68.53a50.481,50.481,0,0,1,28.56,7.122,7.982,7.982,0,1,0,8.2-13.7,66.555,66.555,0,0,0-73.366,110.865,50.36,50.36,0,0,1,19.146,27.752L44.1,158.229a50.537,50.537,0,0,1,28.934-11.208,7.982,7.982,0,1,0-.875-15.941,66.905,66.905,0,0,0-59.588,45.847,66.515,66.515,0,0,0,63.091,87.026H75.8a50.244,50.244,0,0,1,31.839,11.33L26.964,301.5a50.388,50.388,0,0,1,16.743-25.88,7.983,7.983,0,0,0-10.142-12.33A66.474,66.474,0,0,0,96.329,377.861a66.547,66.547,0,0,0,18.91-9.568,50.391,50.391,0,0,1,31.965-9.362l-49.693,68.4a50.525,50.525,0,0,1-1.7-31.017A7.983,7.983,0,1,0,80.38,392.2a66.9,66.9,0,0,0,25.175,70.9,65.966,65.966,0,0,0,38.928,12.709,67.326,67.326,0,0,0,10.54-.833,66.556,66.556,0,0,0,52.817-45.057,50.274,50.274,0,0,1,20.627-26.833v84.867a50.432,50.432,0,0,1-19.193-23.173,7.983,7.983,0,1,0-14.764,6.075A66.275,66.275,0,0,0,256,512.049h0a66.514,66.514,0,0,0,63.1-87.408,50.206,50.206,0,0,1,1.08-33.427l49.836,68.593a50.413,50.413,0,0,1-29.612-7.765,7.982,7.982,0,1,0-8.518,13.5,66.551,66.551,0,0,0,74.676-110.06,50.36,50.36,0,0,1-19.161-27.808l80.659,26.207a50.424,50.424,0,0,1-28.1,11.142,7.983,7.983,0,0,0,.587,15.944c.2,0,.4-.008.6-.023a66.48,66.48,0,0,0,15.6-129.519Zm22.653-80.115a50.536,50.536,0,0,1,7.147,21.933l-93.587,30.407a51.188,51.188,0,0,1-4.786-10.512,50.619,50.619,0,0,1-2.3-11.439ZM405.594,69.753l-57.785,79.533a50.854,50.854,0,0,1-18.668-13.549l57.771-79.514a50.525,50.525,0,0,1,18.682,13.53ZM369.931,52.375l-49.76,68.489a50.2,50.2,0,0,1-1.71-31.176q.466-1.267.886-2.561a50.533,50.533,0,0,1,50.584-34.752ZM306.505,66.533a50.444,50.444,0,0,1-2.569,15.954c-.012.034-.022.068-.033.1-.215.676-.41,1.354-.6,2.033a50.237,50.237,0,0,1-19.768,24.407v-84.8A50.5,50.5,0,0,1,306.505,66.533Zm-62.038-49.16a50.137,50.137,0,0,1,23.066,0v98.414a50.892,50.892,0,0,1-23.066-.012ZM114.938,61.929a50.642,50.642,0,0,1,10.145-5.714l57.778,79.525a50.828,50.828,0,0,1-18.67,13.547L106.41,69.759A50.892,50.892,0,0,1,114.938,61.929Zm8.884,151.211a50.912,50.912,0,0,1-4.8,10.511l-93.572-30.4a50.9,50.9,0,0,1,2.3-11.388,49.822,49.822,0,0,1,4.852-10.542l93.523,30.387A50.912,50.912,0,0,1,123.822,213.14ZM32.567,340.754a50.425,50.425,0,0,1-4.812-10.5,51.188,51.188,0,0,1-2.323-11.433l93.577-30.4a51.2,51.2,0,0,1,4.812,10.557,50.675,50.675,0,0,1,2.3,11.386Zm73.84,101.551,57.756-79.494a50.783,50.783,0,0,1,18.674,13.54l-57.786,79.536a50.908,50.908,0,0,1-10.112-5.7A49.836,49.836,0,0,1,106.407,442.305Zm138.06-45.979a50.911,50.911,0,0,1,23.066.011v98.4a50.539,50.539,0,0,1-23.066.021Zm152.6,53.857a51.163,51.163,0,0,1-10.107,5.718l-57.8-79.551a50.852,50.852,0,0,1,18.677-13.536l57.774,79.517A50.9,50.9,0,0,1,397.066,450.183Zm.115-81.784a50.733,50.733,0,0,1,17.363,59l-49.738-68.457c.058,0,.115-.009.172-.011a7.983,7.983,0,0,0-.742-15.949A66.611,66.611,0,0,0,303.9,429.522c.011.034.021.068.033.1a50.532,50.532,0,0,1-20.4,58.262V403.061a7.982,7.982,0,0,0,7.688-13.965,66.661,66.661,0,0,0-98.564,35.888,50.571,50.571,0,0,1-50.647,34.782l49.8-68.549a7.978,7.978,0,0,0,14.818-5.919A66.582,66.582,0,0,0,105.9,355.344l-.081.059a51.01,51.01,0,0,1-61.812-1.543l80.56-26.175c-.018.064-.032.129-.049.193a7.982,7.982,0,1,0,15.4,4.22,66.607,66.607,0,0,0-64.066-84.111h-.187a50.569,50.569,0,0,1-48.654-37.411l80.632,26.2c-.088.072-.173.147-.263.219a7.983,7.983,0,0,0,10,12.449,66.56,66.56,0,0,0-2.55-105.731A50.731,50.731,0,0,1,97.472,84.678l49.757,68.483c-.12.006-.238.017-.358.023a7.983,7.983,0,0,0,.693,15.95A66.608,66.608,0,0,0,208.1,82.588c-.011-.033-.021-.067-.033-.1a50.532,50.532,0,0,1,20.4-58.259V109a7.978,7.978,0,0,0-8.372,13.581,66.8,66.8,0,0,0,81.822-7.769A66.614,66.614,0,0,0,406.1,156.767l.081-.059a51.015,51.015,0,0,1,61.765,1.5l-80.58,26.181a7.98,7.98,0,0,0-15.659-2.941,66.612,66.612,0,0,0,64.444,82.671h.187a50.53,50.53,0,0,1,48.6,37.344l-80.794-26.252a7.981,7.981,0,0,0-11.694-10.723A66.562,66.562,0,0,0,397.181,368.4Zm82.278-27.636-93.581-30.407a50.353,50.353,0,0,1,7.15-21.93l93.511,30.383a50.585,50.585,0,0,1-7.08,21.954Z" fill="#000000"></path></svg>